# xmcd
#
# Track frame offsets: 
#        150
#        23240
#        39368
#        50631
#        60187
#        73317
#        83575
#        93636
#        106807
#        121078
#        132356
#        147194
#        160137
#        174696
#        187017
#        198597
#
# Disc length: 2831 seconds
#
# Revision: 2
# Processed by: cddbd v1.4PL0 Copyright (c) Steve Scherf et al.
# Submitted via: ExactAudioCopy v0.90a11
#
DISCID=dd0b0d10
DTITLE=Various Artist - Country Love Deel 1
DYEAR=1900
DGENRE=
TTITLE0=Sunshine On My Shoulders - John Denver
TTITLE1=A Boy Named Sue - John Cash
TTITLE2=Just Out Of Reach - Pasty Cline
TTITLE3=Am I That Easy To Forget - Skeeter Davis
TTITLE4=D. I.V.O.R.C.E. - Dottie West
TTITLE5=Lonsome Number One - Dom Gibson
TTITLE6=Good Old Acapella - Brenda Lee
TTITLE7=Let Your Love Flow - Lortta Lynn
TTITLE8=Caarles Hands - Jerry Lee Lewis
TTITLE9=Cry Nothing - Pasty Cilne
TTITLE10=For You - John Denver
TTITLE11=Raining In My Heart - Wand Jackson
TTITLE12=Coalminer's Daughter - Loretta Lynn
TTITLE13=Stand By Your Men - Lynn Anderson
TTITLE14=Little Green Apples - Roger Miller
TTITLE15=You Don't Have To Say You Love Me
EXTD=
EXTT0=
EXTT1=
EXTT2=
EXTT3=
EXTT4=
EXTT5=
EXTT6=
EXTT7=
EXTT8=
EXTT9=
EXTT10=
EXTT11=
EXTT12=
EXTT13=
EXTT14=
EXTT15=
PLAYORDER=
